<svg width="514" height="505" viewBox="0 0 514 505" fill="none" xmlns="http://www.w3.org/2000/svg">
<path d="M267 20L324.288 112.602L427.697 78.4889L412.059 186.25L513.202 226.588L431.955 299.086L483.506 395L374.667 398.312L352.505 504.923L267 437.5L181.495 504.923L159.333 398.312L50.4937 395L102.045 299.086L20.7981 226.588L121.941 186.25L106.303 78.4889L209.712 112.602L267 20Z" fill="#00F1BB" fill-opacity="0.92"/>
<path d="M247 0L304.288 92.6015L407.697 58.4889L392.059 166.25L493.202 206.588L411.955 279.086L463.506 375L354.667 378.312L332.505 484.923L247 417.5L161.495 484.923L139.333 378.312L30.4937 375L82.0447 279.086L0.798065 206.588L101.941 166.25L86.3031 58.4889L189.712 92.6015L247 0Z" fill="#FF003D"/>
<path d="M267 20L324.288 112.602L427.697 78.4889L412.059 186.25L513.202 226.588L431.955 299.086L483.506 395L374.667 398.312L352.505 504.923L267 437.5L181.495 504.923L159.333 398.312L50.4937 395L102.045 299.086L20.7981 226.588L121.941 186.25L106.303 78.4889L209.712 112.602L267 20Z" fill="#00F1BB" fill-opacity="0.92"/>
<path d="M247 0L304.288 92.6015L407.697 58.4889L392.059 166.25L493.202 206.588L411.955 279.086L463.506 375L354.667 378.312L332.505 484.923L247 417.5L161.495 484.923L139.333 378.312L30.4937 375L82.0447 279.086L0.798065 206.588L101.941 166.25L86.3031 58.4889L189.712 92.6015L247 0Z" fill="#FF003D"/>
<path d="M165.277 215.387H186.441L191.732 188.68H207.773L202.566 215.387H232.045L237.336 188.68H253.377L248.17 215.387H267.066L263.791 232.1H244.895L238.092 266.953H258.164L255.057 283.33H234.9L228.602 316H212.393L218.775 283.33H189.297L182.998 316H166.453L172.92 283.33H152.68L156.123 266.953H176.195L183.082 232.1H161.834L165.277 215.387ZM192.488 266.953H221.967L228.77 232.1H199.291L192.488 266.953ZM290.918 301.555H303.264V208.416L277.48 222.441V204.889L312.922 185.068H319.641V301.555H332.154V316H290.918V301.555Z" fill="white"/>
</svg>
