<svg width="520" height="520" viewBox="0 0 520 520" fill="none" xmlns="http://www.w3.org/2000/svg">
<path d="M270 20L327.288 112.602L430.697 78.4889L415.059 186.25L516.202 226.588L434.955 299.086L486.506 395L377.667 398.312L355.505 504.923L270 437.5L184.495 504.923L162.333 398.312L53.4937 395L105.045 299.086L23.7981 226.588L124.941 186.25L109.303 78.4889L212.712 112.602L270 20Z" fill="#00F1BB" fill-opacity="0.92"/>
<path d="M250 0L307.288 92.6015L410.697 58.4889L395.059 166.25L496.202 206.588L414.955 279.086L466.506 375L357.667 378.312L335.505 484.923L250 417.5L164.495 484.923L142.333 378.312L33.4937 375L85.0447 279.086L3.79807 206.588L104.941 166.25L89.3031 58.4889L192.712 92.6015L250 0Z" fill="#FF003D"/>
<path d="M270 20L327.288 112.602L430.697 78.4889L415.059 186.25L516.202 226.588L434.955 299.086L486.506 395L377.667 398.312L355.505 504.923L270 437.5L184.495 504.923L162.333 398.312L53.4937 395L105.045 299.086L23.7981 226.588L124.941 186.25L109.303 78.4889L212.712 112.602L270 20Z" fill="#00F1BB" fill-opacity="0.92"/>
<path d="M250 0L307.288 92.6015L410.697 58.4889L395.059 166.25L496.202 206.588L414.955 279.086L466.506 375L357.667 378.312L335.505 484.923L250 417.5L164.495 484.923L142.333 378.312L33.4937 375L85.0447 279.086L3.79807 206.588L104.941 166.25L89.3031 58.4889L192.712 92.6015L250 0Z" fill="#FF003D"/>
<path d="M112.277 211.387H133.441L138.732 184.68H154.773L149.566 211.387H179.045L184.336 184.68H200.377L195.17 211.387H214.066L210.791 228.1H191.895L185.092 262.953H205.164L202.057 279.33H181.9L175.602 312H159.393L165.775 279.33H136.297L129.998 312H113.453L119.92 279.33H99.6797L103.123 262.953H123.195L130.082 228.1H108.834L112.277 211.387ZM139.488 262.953H168.967L175.77 228.1H146.291L139.488 262.953ZM237.918 297.555H250.264V204.416L224.48 218.441V200.889L259.922 181.068H266.641V297.555H279.154V312H237.918V297.555ZM344.662 313.512C335.592 313.512 328.005 311.832 321.902 308.473C315.799 305.113 310.9 300.494 307.205 294.615C303.566 288.736 300.962 281.85 299.395 273.955C297.827 266.061 297.043 257.578 297.043 248.508C297.043 238.822 298.107 229.779 300.234 221.381C302.362 212.926 305.217 206.152 308.801 201.057C312.384 195.962 316.891 191.622 322.322 188.039C327.809 184.456 335.312 182.664 344.83 182.664C353.844 182.664 361.347 184.092 367.338 186.947C373.329 189.803 378.256 194.198 382.119 200.133C386.038 206.012 388.782 213.122 390.35 221.465C391.917 229.807 392.701 238.654 392.701 248.004C392.701 257.13 391.917 265.669 390.35 273.619C388.782 281.57 386.122 288.512 382.371 294.447C378.676 300.326 373.749 304.973 367.59 308.389C361.431 311.804 353.788 313.512 344.662 313.512ZM344.662 298.562C351.213 298.562 356.476 297.247 360.451 294.615C364.482 291.928 367.506 288.288 369.521 283.697C371.593 279.106 373.133 273.759 374.141 267.656C375.148 261.497 375.652 254.947 375.652 248.004C375.652 241.341 375.26 234.958 374.477 228.855C373.693 222.697 372.181 217.266 369.941 212.562C367.702 207.859 364.566 204.108 360.535 201.309C356.504 198.509 351.269 197.109 344.83 197.109C338.167 197.109 332.904 198.509 329.041 201.309C325.178 204.108 322.294 207.495 320.391 211.471C318.487 215.39 316.975 220.793 315.855 227.68C314.792 234.566 314.26 241.341 314.26 248.004C314.26 254.947 314.596 261.497 315.268 267.656C315.995 273.759 317.423 279.106 319.551 283.697C321.734 288.288 324.814 291.928 328.789 294.615C332.82 297.247 338.111 298.562 344.662 298.562Z" fill="white"/>
</svg>
