<svg width="520" height="520" viewBox="0 0 520 520" fill="none" xmlns="http://www.w3.org/2000/svg">
<path d="M270 20L327.288 112.602L430.697 78.4889L415.059 186.25L516.202 226.588L434.955 299.086L486.506 395L377.667 398.312L355.505 504.923L270 437.5L184.495 504.923L162.333 398.312L53.4937 395L105.045 299.086L23.7981 226.588L124.941 186.25L109.303 78.4889L212.712 112.602L270 20Z" fill="#00F1BB" fill-opacity="0.92"/>
<path d="M250 0L307.288 92.6015L410.697 58.4889L395.059 166.25L496.202 206.588L414.955 279.086L466.506 375L357.667 378.312L335.505 484.923L250 417.5L164.495 484.923L142.333 378.312L33.4937 375L85.0447 279.086L3.79807 206.588L104.941 166.25L89.3031 58.4889L192.712 92.6015L250 0Z" fill="#FF003D"/>
<path d="M270 20L327.288 112.602L430.697 78.4889L415.059 186.25L516.202 226.588L434.955 299.086L486.506 395L377.667 398.312L355.505 504.923L270 437.5L184.495 504.923L162.333 398.312L53.4937 395L105.045 299.086L23.7981 226.588L124.941 186.25L109.303 78.4889L212.712 112.602L270 20Z" fill="#00F1BB" fill-opacity="0.92"/>
<path d="M250 0L307.288 92.6015L410.697 58.4889L395.059 166.25L496.202 206.588L414.955 279.086L466.506 375L357.667 378.312L335.505 484.923L250 417.5L164.495 484.923L142.333 378.312L33.4937 375L85.0447 279.086L3.79807 206.588L104.941 166.25L89.3031 58.4889L192.712 92.6015L250 0Z" fill="#FF003D"/>
<path d="M270 20L327.288 112.602L430.697 78.4889L415.059 186.25L516.202 226.588L434.955 299.086L486.506 395L377.667 398.312L355.505 504.923L270 437.5L184.495 504.923L162.333 398.312L53.4937 395L105.045 299.086L23.7981 226.588L124.941 186.25L109.303 78.4889L212.712 112.602L270 20Z" fill="#00F1BB" fill-opacity="0.92"/>
<path d="M250 0L307.288 92.6015L410.697 58.4889L395.059 166.25L496.202 206.588L414.955 279.086L466.506 375L357.667 378.312L335.505 484.923L250 417.5L164.495 484.923L142.333 378.312L33.4937 375L85.0447 279.086L3.79807 206.588L104.941 166.25L89.3031 58.4889L192.712 92.6015L250 0Z" fill="#FF003D"/>
<path d="M270 20L327.288 112.602L430.697 78.4889L415.059 186.25L516.202 226.588L434.955 299.086L486.506 395L377.667 398.312L355.505 504.923L270 437.5L184.495 504.923L162.333 398.312L53.4937 395L105.045 299.086L23.7981 226.588L124.941 186.25L109.303 78.4889L212.712 112.602L270 20Z" fill="#00F1BB" fill-opacity="0.92"/>
<path d="M250 0L307.288 92.6015L410.697 58.4889L395.059 166.25L496.202 206.588L414.955 279.086L466.506 375L357.667 378.312L335.505 484.923L250 417.5L164.495 484.923L142.333 378.312L33.4937 375L85.0447 279.086L3.79807 206.588L104.941 166.25L89.3031 58.4889L192.712 92.6015L250 0Z" fill="#FF003D"/>
<path d="M270 20L327.288 112.602L430.697 78.4889L415.059 186.25L516.202 226.588L434.955 299.086L486.506 395L377.667 398.312L355.505 504.923L270 437.5L184.495 504.923L162.333 398.312L53.4937 395L105.045 299.086L23.7981 226.588L124.941 186.25L109.303 78.4889L212.712 112.602L270 20Z" fill="#00F1BB" fill-opacity="0.92"/>
<path d="M250 0L307.288 92.6015L410.697 58.4889L395.059 166.25L496.202 206.588L414.955 279.086L466.506 375L357.667 378.312L335.505 484.923L250 417.5L164.495 484.923L142.333 378.312L33.4937 375L85.0447 279.086L3.79807 206.588L104.941 166.25L89.3031 58.4889L192.712 92.6015L250 0Z" fill="#FF003D"/>
<path d="M270 20L327.288 112.602L430.697 78.4889L415.059 186.25L516.202 226.588L434.955 299.086L486.506 395L377.667 398.312L355.505 504.923L270 437.5L184.495 504.923L162.333 398.312L53.4937 395L105.045 299.086L23.7981 226.588L124.941 186.25L109.303 78.4889L212.712 112.602L270 20Z" fill="#00F1BB" fill-opacity="0.92"/>
<path d="M250 0L307.288 92.6015L410.697 58.4889L395.059 166.25L496.202 206.588L414.955 279.086L466.506 375L357.667 378.312L335.505 484.923L250 417.5L164.495 484.923L142.333 378.312L33.4937 375L85.0447 279.086L3.79807 206.588L104.941 166.25L89.3031 58.4889L192.712 92.6015L250 0Z" fill="#FF003D"/>
<path d="M158.277 210.387H179.441L184.732 183.68H200.773L195.566 210.387H225.045L230.336 183.68H246.377L241.17 210.387H260.066L256.791 227.1H237.895L231.092 261.953H251.164L248.057 278.33H227.9L221.602 311H205.393L211.775 278.33H182.297L175.998 311H159.453L165.92 278.33H145.68L149.123 261.953H169.195L176.082 227.1H154.834L158.277 210.387ZM185.488 261.953H214.967L221.77 227.1H192.291L185.488 261.953ZM270.984 298.654L315.748 244.568C317.26 242.777 318.827 240.845 320.451 238.773C322.131 236.702 323.671 234.518 325.07 232.223C326.526 229.927 327.702 227.548 328.598 225.084C329.549 222.564 330.025 219.961 330.025 217.273C330.025 214.474 329.465 211.842 328.346 209.379C327.226 206.915 325.686 204.76 323.727 202.912C321.767 201.064 319.415 199.609 316.672 198.545C313.984 197.481 311.017 196.949 307.77 196.949C304.858 196.949 302.087 197.425 299.455 198.377C296.88 199.273 294.612 200.617 292.652 202.408C290.693 204.2 289.097 206.439 287.865 209.127C286.689 211.758 286.046 214.81 285.934 218.281H270.816C270.872 212.962 271.908 208.063 273.924 203.584C275.939 199.049 278.627 195.158 281.986 191.91C285.402 188.607 289.349 186.059 293.828 184.268C298.307 182.42 303.01 181.496 307.938 181.496C313.648 181.496 318.827 182.42 323.475 184.268C328.122 186.059 332.097 188.551 335.4 191.742C338.704 194.934 341.251 198.713 343.043 203.08C344.891 207.447 345.814 212.178 345.814 217.273C345.814 219.289 345.562 221.445 345.059 223.74C344.611 225.98 343.799 228.415 342.623 231.047C341.503 233.622 339.992 236.394 338.088 239.361C336.24 242.329 333.889 245.52 331.033 248.936L291.309 296.219H345.646V311H270.984V298.654Z" fill="white"/>
</svg>
