<svg width="520" height="520" viewBox="0 0 520 520" fill="none" xmlns="http://www.w3.org/2000/svg">
<path d="M270 20L327.288 112.602L430.697 78.4889L415.059 186.25L516.202 226.588L434.955 299.086L486.506 395L377.667 398.312L355.505 504.923L270 437.5L184.495 504.923L162.333 398.312L53.4937 395L105.045 299.086L23.7981 226.588L124.941 186.25L109.303 78.4889L212.712 112.602L270 20Z" fill="#00F1BB" fill-opacity="0.92"/>
<path d="M250 0L307.288 92.6015L410.697 58.4889L395.059 166.25L496.202 206.588L414.955 279.086L466.506 375L357.667 378.312L335.505 484.923L250 417.5L164.495 484.923L142.333 378.312L33.4937 375L85.0447 279.086L3.79807 206.588L104.941 166.25L89.3031 58.4889L192.712 92.6015L250 0Z" fill="#FF003D"/>
<path d="M270 20L327.288 112.602L430.697 78.4889L415.059 186.25L516.202 226.588L434.955 299.086L486.506 395L377.667 398.312L355.505 504.923L270 437.5L184.495 504.923L162.333 398.312L53.4937 395L105.045 299.086L23.7981 226.588L124.941 186.25L109.303 78.4889L212.712 112.602L270 20Z" fill="#00F1BB" fill-opacity="0.92"/>
<path d="M250 0L307.288 92.6015L410.697 58.4889L395.059 166.25L496.202 206.588L414.955 279.086L466.506 375L357.667 378.312L335.505 484.923L250 417.5L164.495 484.923L142.333 378.312L33.4937 375L85.0447 279.086L3.79807 206.588L104.941 166.25L89.3031 58.4889L192.712 92.6015L250 0Z" fill="#FF003D"/>
<path d="M158.277 211.387H179.441L184.732 184.68H200.773L195.566 211.387H225.045L230.336 184.68H246.377L241.17 211.387H260.066L256.791 228.1H237.895L231.092 262.953H251.164L248.057 279.33H227.9L221.602 312H205.393L211.775 279.33H182.297L175.998 312H159.453L165.92 279.33H145.68L149.123 262.953H169.195L176.082 228.1H154.834L158.277 211.387ZM185.488 262.953H214.967L221.77 228.1H192.291L185.488 262.953ZM329.102 217.938C329.102 215.754 328.626 213.43 327.674 210.967C326.778 208.447 325.35 206.152 323.391 204.08C321.487 201.952 319.051 200.217 316.084 198.873C313.173 197.473 309.729 196.773 305.754 196.773C302.451 196.773 299.427 197.361 296.684 198.537C293.996 199.657 291.309 201.785 288.621 204.92C285.934 208.055 284.478 211.527 284.254 215.334H268.297C268.577 210.463 269.781 206.068 271.908 202.148C274.092 198.229 276.835 194.786 280.139 191.818C283.442 188.851 287.305 186.499 291.729 184.764C296.152 183.028 300.771 182.16 305.586 182.16C311.577 182.16 317.008 183.168 321.879 185.184C326.75 187.143 330.893 189.775 334.309 193.078C337.78 196.326 340.439 200.049 342.287 204.248C344.191 208.447 345.143 212.73 345.143 217.098C345.143 219.785 344.807 222.473 344.135 225.16C343.463 227.848 342.399 230.423 340.943 232.887C339.544 235.294 337.724 237.534 335.484 239.605C333.245 241.677 330.529 243.497 327.338 245.064C329.969 246.072 332.433 247.5 334.729 249.348C337.08 251.139 339.124 253.295 340.859 255.814C342.595 258.334 343.967 261.189 344.975 264.381C345.982 267.572 346.486 271.072 346.486 274.879C346.486 280.366 345.423 285.461 343.295 290.164C341.167 294.811 338.284 298.842 334.645 302.258C331.005 305.673 326.722 308.361 321.795 310.32C316.924 312.224 311.689 313.176 306.09 313.176C300.939 313.176 295.816 312.28 290.721 310.488C285.682 308.641 281.398 306.037 277.871 302.678C274.344 299.318 271.74 295.819 270.061 292.18C268.381 288.54 267.373 284.929 267.037 281.346H283.162C284.786 286.553 287.669 290.64 291.812 293.607C296.012 296.575 301.331 298.059 307.77 298.059C310.681 298.059 313.508 297.471 316.252 296.295C319.051 295.119 321.515 293.495 323.643 291.424C325.77 289.296 327.478 286.833 328.766 284.033C330.053 281.178 330.697 278.07 330.697 274.711C330.697 271.184 330.053 267.992 328.766 265.137C327.478 262.281 325.742 259.874 323.559 257.914C321.375 255.898 318.827 254.359 315.916 253.295C313.061 252.175 310.009 251.615 306.762 251.615H299.539V238.934H305.418C309.113 238.934 312.417 238.402 315.328 237.338C318.296 236.218 320.787 234.706 322.803 232.803C324.818 230.899 326.358 228.688 327.422 226.168C328.542 223.592 329.102 220.849 329.102 217.938Z" fill="white"/>
</svg>
