<svg width="520" height="520" viewBox="0 0 520 520" fill="none" xmlns="http://www.w3.org/2000/svg">
<path d="M270 20L327.288 112.602L430.697 78.4889L415.059 186.25L516.202 226.588L434.955 299.086L486.506 395L377.667 398.312L355.505 504.923L270 437.5L184.495 504.923L162.333 398.312L53.4937 395L105.045 299.086L23.7981 226.588L124.941 186.25L109.303 78.4889L212.712 112.602L270 20Z" fill="#00F1BB" fill-opacity="0.92"/>
<path d="M250 0L307.288 92.6015L410.697 58.4889L395.059 166.25L496.202 206.588L414.955 279.086L466.506 375L357.667 378.312L335.505 484.923L250 417.5L164.495 484.923L142.333 378.312L33.4937 375L85.0447 279.086L3.79807 206.588L104.941 166.25L89.3031 58.4889L192.712 92.6015L250 0Z" fill="#FF003D"/>
<path d="M270 20L327.288 112.602L430.697 78.4889L415.059 186.25L516.202 226.588L434.955 299.086L486.506 395L377.667 398.312L355.505 504.923L270 437.5L184.495 504.923L162.333 398.312L53.4937 395L105.045 299.086L23.7981 226.588L124.941 186.25L109.303 78.4889L212.712 112.602L270 20Z" fill="#00F1BB" fill-opacity="0.92"/>
<path d="M250 0L307.288 92.6015L410.697 58.4889L395.059 166.25L496.202 206.588L414.955 279.086L466.506 375L357.667 378.312L335.505 484.923L250 417.5L164.495 484.923L142.333 378.312L33.4937 375L85.0447 279.086L3.79807 206.588L104.941 166.25L89.3031 58.4889L192.712 92.6015L250 0Z" fill="#FF003D"/>
<path d="M152.277 211.387H173.441L178.732 184.68H194.773L189.566 211.387H219.045L224.336 184.68H240.377L235.17 211.387H254.066L250.791 228.1H231.895L225.092 262.953H245.164L242.057 279.33H221.9L215.602 312H199.393L205.775 279.33H176.297L169.998 312H153.453L159.92 279.33H139.68L143.123 262.953H163.195L170.082 228.1H148.834L152.277 211.387ZM179.488 262.953H208.967L215.77 228.1H186.291L179.488 262.953ZM265.32 261.945L310.588 184.68H328.477L285.393 260.77H317.979V239.773L334.439 238.598V260.77H353.42V275.215H334.439V297.555H347.037V312H305.717V297.555H317.979V275.215H265.152L265.32 261.945Z" fill="white"/>
</svg>
