<svg width="520" height="520" viewBox="0 0 520 520" fill="none" xmlns="http://www.w3.org/2000/svg">
<path d="M270 20L327.288 112.602L430.697 78.4889L415.059 186.25L516.202 226.588L434.955 299.086L486.506 395L377.667 398.312L355.505 504.923L270 437.5L184.495 504.923L162.333 398.312L53.4937 395L105.045 299.086L23.7981 226.588L124.941 186.25L109.303 78.4889L212.712 112.602L270 20Z" fill="#00F1BB" fill-opacity="0.92"/>
<path d="M250 0L307.288 92.6015L410.697 58.4889L395.059 166.25L496.202 206.588L414.955 279.086L466.506 375L357.667 378.312L335.505 484.923L250 417.5L164.495 484.923L142.333 378.312L33.4937 375L85.0447 279.086L3.79807 206.588L104.941 166.25L89.3031 58.4889L192.712 92.6015L250 0Z" fill="#FF003D"/>
<path d="M270 20L327.288 112.602L430.697 78.4889L415.059 186.25L516.202 226.588L434.955 299.086L486.506 395L377.667 398.312L355.505 504.923L270 437.5L184.495 504.923L162.333 398.312L53.4937 395L105.045 299.086L23.7981 226.588L124.941 186.25L109.303 78.4889L212.712 112.602L270 20Z" fill="#00F1BB" fill-opacity="0.92"/>
<path d="M250 0L307.288 92.6015L410.697 58.4889L395.059 166.25L496.202 206.588L414.955 279.086L466.506 375L357.667 378.312L335.505 484.923L250 417.5L164.495 484.923L142.333 378.312L33.4937 375L85.0447 279.086L3.79807 206.588L104.941 166.25L89.3031 58.4889L192.712 92.6015L250 0Z" fill="#FF003D"/>
<path d="M156.277 211.387H177.441L182.732 184.68H198.773L193.566 211.387H223.045L228.336 184.68H244.377L239.17 211.387H258.066L254.791 228.1H235.895L229.092 262.953H249.164L246.057 279.33H225.9L219.602 312H203.393L209.775 279.33H180.297L173.998 312H157.453L163.92 279.33H143.68L147.123 262.953H167.195L174.082 228.1H152.834L156.277 211.387ZM183.488 262.953H212.967L219.77 228.1H190.291L183.488 262.953ZM288.217 236.918C291.352 234.79 294.572 233.195 297.875 232.131C301.178 231.011 304.958 230.451 309.213 230.451C315.484 230.451 321.251 231.571 326.514 233.811C331.777 236.05 336.284 239.074 340.035 242.881C343.842 246.688 346.782 251.139 348.854 256.234C350.981 261.273 352.045 266.62 352.045 272.275C352.045 277.986 351.009 283.417 348.938 288.568C346.866 293.663 343.926 298.143 340.119 302.006C336.312 305.869 331.721 308.949 326.346 311.244C321.027 313.484 315.092 314.604 308.541 314.604C303.558 314.604 298.911 313.932 294.6 312.588C290.288 311.3 286.397 309.48 282.926 307.129C279.454 304.721 276.431 301.866 273.855 298.562C271.336 295.259 269.32 291.648 267.809 287.729L281.582 280.842C282.478 283.697 283.794 286.357 285.529 288.82C287.265 291.228 289.309 293.327 291.66 295.119C294.012 296.855 296.615 298.227 299.471 299.234C302.326 300.186 305.35 300.662 308.541 300.662C312.572 300.662 316.296 299.934 319.711 298.479C323.182 296.967 326.178 294.923 328.697 292.348C331.273 289.772 333.288 286.777 334.744 283.361C336.2 279.89 336.928 276.195 336.928 272.275C336.928 268.3 336.2 264.633 334.744 261.273C333.288 257.858 331.273 254.919 328.697 252.455C326.122 249.936 323.098 247.976 319.627 246.576C316.212 245.12 312.516 244.393 308.541 244.393C304.062 244.393 299.919 245.204 296.111 246.828C292.36 248.396 289.225 250.523 286.705 253.211L274.359 251.279V184.68H346.082V198.621H288.217V236.918Z" fill="white"/>
</svg>
