<svg width="520" height="520" viewBox="0 0 520 520" fill="none" xmlns="http://www.w3.org/2000/svg">
<path d="M270 20L327.288 112.602L430.697 78.4889L415.059 186.25L516.202 226.588L434.955 299.086L486.506 395L377.667 398.312L355.505 504.923L270 437.5L184.495 504.923L162.333 398.312L53.4937 395L105.045 299.086L23.7981 226.588L124.941 186.25L109.303 78.4889L212.712 112.602L270 20Z" fill="#00F1BB" fill-opacity="0.92"/>
<path d="M250 0L307.288 92.6015L410.697 58.4889L395.059 166.25L496.202 206.588L414.955 279.086L466.506 375L357.667 378.312L335.505 484.923L250 417.5L164.495 484.923L142.333 378.312L33.4937 375L85.0447 279.086L3.79807 206.588L104.941 166.25L89.3031 58.4889L192.712 92.6015L250 0Z" fill="#FF003D"/>
<path d="M270 20L327.288 112.602L430.697 78.4889L415.059 186.25L516.202 226.588L434.955 299.086L486.506 395L377.667 398.312L355.505 504.923L270 437.5L184.495 504.923L162.333 398.312L53.4937 395L105.045 299.086L23.7981 226.588L124.941 186.25L109.303 78.4889L212.712 112.602L270 20Z" fill="#00F1BB" fill-opacity="0.92"/>
<path d="M250 0L307.288 92.6015L410.697 58.4889L395.059 166.25L496.202 206.588L414.955 279.086L466.506 375L357.667 378.312L335.505 484.923L250 417.5L164.495 484.923L142.333 378.312L33.4937 375L85.0447 279.086L3.79807 206.588L104.941 166.25L89.3031 58.4889L192.712 92.6015L250 0Z" fill="#FF003D"/>
<path d="M152.277 211.387H173.441L178.732 184.68H194.773L189.566 211.387H219.045L224.336 184.68H240.377L235.17 211.387H254.066L250.791 228.1H231.895L225.092 262.953H245.164L242.057 279.33H221.9L215.602 312H199.393L205.775 279.33H176.297L169.998 312H153.453L159.92 279.33H139.68L143.123 262.953H163.195L170.082 228.1H148.834L152.277 211.387ZM179.488 262.953H208.967L215.77 228.1H186.291L179.488 262.953ZM326.041 184.68L297.486 232.299C300.902 230.843 303.981 230.003 306.725 229.779C309.524 229.555 312.016 229.443 314.199 229.443C319.35 229.443 324.333 230.423 329.148 232.383C333.964 234.286 338.219 237.002 341.914 240.529C345.665 244.001 348.661 248.172 350.9 253.043C353.14 257.858 354.26 263.177 354.26 269C354.26 276.111 353.056 282.438 350.648 287.98C348.241 293.523 344.993 298.199 340.906 302.006C336.819 305.813 332.06 308.725 326.629 310.74C321.254 312.7 315.543 313.68 309.496 313.68C303.785 313.68 298.27 312.644 292.951 310.572C287.688 308.501 283.013 305.617 278.926 301.922C274.839 298.171 271.563 293.691 269.1 288.484C266.692 283.221 265.488 277.398 265.488 271.016C265.488 266.089 266.412 261.217 268.26 256.402C270.163 251.587 272.515 246.548 275.314 241.285L306.473 184.68H326.041ZM307.648 243.217C303.617 243.217 300.174 243.861 297.318 245.148C294.519 246.38 291.859 248.144 289.34 250.439C286.82 252.679 284.833 255.562 283.377 259.09C281.921 262.561 281.193 266.592 281.193 271.184C281.193 275.551 281.921 279.47 283.377 282.941C284.833 286.413 286.848 289.352 289.424 291.76C291.999 294.111 295.023 295.931 298.494 297.219C302.021 298.451 305.829 299.066 309.916 299.066C313.723 299.066 317.363 298.395 320.834 297.051C324.305 295.707 327.357 293.803 329.988 291.34C332.62 288.876 334.719 285.937 336.287 282.521C337.855 279.106 338.639 275.327 338.639 271.184C338.639 266.592 337.799 262.561 336.119 259.09C334.439 255.562 332.172 252.623 329.316 250.271C326.517 247.92 323.242 246.156 319.49 244.98C315.739 243.805 311.792 243.217 307.648 243.217Z" fill="white"/>
</svg>
