<svg width="520" height="520" viewBox="0 0 520 520" fill="none" xmlns="http://www.w3.org/2000/svg">
<path d="M270 20L327.288 112.602L430.697 78.4889L415.059 186.25L516.202 226.588L434.955 299.086L486.506 395L377.667 398.312L355.505 504.923L270 437.5L184.495 504.923L162.333 398.312L53.4937 395L105.045 299.086L23.7981 226.588L124.941 186.25L109.303 78.4889L212.712 112.602L270 20Z" fill="#00F1BB" fill-opacity="0.92"/>
<path d="M250 0L307.288 92.6015L410.697 58.4889L395.059 166.25L496.202 206.588L414.955 279.086L466.506 375L357.667 378.312L335.505 484.923L250 417.5L164.495 484.923L142.333 378.312L33.4937 375L85.0447 279.086L3.79807 206.588L104.941 166.25L89.3031 58.4889L192.712 92.6015L250 0Z" fill="#FF003D"/>
<path d="M270 20L327.288 112.602L430.697 78.4889L415.059 186.25L516.202 226.588L434.955 299.086L486.506 395L377.667 398.312L355.505 504.923L270 437.5L184.495 504.923L162.333 398.312L53.4937 395L105.045 299.086L23.7981 226.588L124.941 186.25L109.303 78.4889L212.712 112.602L270 20Z" fill="#00F1BB" fill-opacity="0.92"/>
<path d="M250 0L307.288 92.6015L410.697 58.4889L395.059 166.25L496.202 206.588L414.955 279.086L466.506 375L357.667 378.312L335.505 484.923L250 417.5L164.495 484.923L142.333 378.312L33.4937 375L85.0447 279.086L3.79807 206.588L104.941 166.25L89.3031 58.4889L192.712 92.6015L250 0Z" fill="#FF003D"/>
<path d="M159.277 215.387H180.441L185.732 188.68H201.773L196.566 215.387H226.045L231.336 188.68H247.377L242.17 215.387H261.066L257.791 232.1H238.895L232.092 266.953H252.164L249.057 283.33H228.9L222.602 316H206.393L212.775 283.33H183.297L176.998 316H160.453L166.92 283.33H146.68L150.123 266.953H170.195L177.082 232.1H155.834L159.277 215.387ZM186.488 266.953H215.967L222.77 232.1H193.291L186.488 266.953ZM279.879 301.555H289.705C292.729 292.932 296.06 284.198 299.699 275.352C303.339 266.449 307.034 257.799 310.785 249.4C314.536 241.002 318.232 233.023 321.871 225.465C325.51 217.85 328.842 210.992 331.865 204.889H284.162V214.715H268.037V188.68H351.602V201.277C347.906 208.556 344.043 216.283 340.012 224.457C335.98 232.576 331.977 240.918 328.002 249.484C324.083 258.051 320.275 266.729 316.58 275.52C312.885 284.31 309.525 292.988 306.502 301.555H317.084V316H279.879V301.555Z" fill="white"/>
<path d="M159.277 215.387H180.441L185.732 188.68H201.773L196.566 215.387H226.045L231.336 188.68H247.377L242.17 215.387H261.066L257.791 232.1H238.895L232.092 266.953H252.164L249.057 283.33H228.9L222.602 316H206.393L212.775 283.33H183.297L176.998 316H160.453L166.92 283.33H146.68L150.123 266.953H170.195L177.082 232.1H155.834L159.277 215.387ZM186.488 266.953H215.967L222.77 232.1H193.291L186.488 266.953ZM279.879 301.555H289.705C292.729 292.932 296.06 284.198 299.699 275.352C303.339 266.449 307.034 257.799 310.785 249.4C314.536 241.002 318.232 233.023 321.871 225.465C325.51 217.85 328.842 210.992 331.865 204.889H284.162V214.715H268.037V188.68H351.602V201.277C347.906 208.556 344.043 216.283 340.012 224.457C335.98 232.576 331.977 240.918 328.002 249.484C324.083 258.051 320.275 266.729 316.58 275.52C312.885 284.31 309.525 292.988 306.502 301.555H317.084V316H279.879V301.555Z" fill="white"/>
</svg>
