<svg width="520" height="520" viewBox="0 0 520 520" fill="none" xmlns="http://www.w3.org/2000/svg">
<path d="M270 20L327.288 112.602L430.697 78.4889L415.059 186.25L516.202 226.588L434.955 299.086L486.506 395L377.667 398.312L355.505 504.923L270 437.5L184.495 504.923L162.333 398.312L53.4937 395L105.045 299.086L23.7981 226.588L124.941 186.25L109.303 78.4889L212.712 112.602L270 20Z" fill="#00F1BB" fill-opacity="0.92"/>
<path d="M250 0L307.288 92.6015L410.697 58.4889L395.059 166.25L496.202 206.588L414.955 279.086L466.506 375L357.667 378.312L335.505 484.923L250 417.5L164.495 484.923L142.333 378.312L33.4937 375L85.0447 279.086L3.79807 206.588L104.941 166.25L89.3031 58.4889L192.712 92.6015L250 0Z" fill="#FF003D"/>
<path d="M270 20L327.288 112.602L430.697 78.4889L415.059 186.25L516.202 226.588L434.955 299.086L486.506 395L377.667 398.312L355.505 504.923L270 437.5L184.495 504.923L162.333 398.312L53.4937 395L105.045 299.086L23.7981 226.588L124.941 186.25L109.303 78.4889L212.712 112.602L270 20Z" fill="#00F1BB" fill-opacity="0.92"/>
<path d="M250 0L307.288 92.6015L410.697 58.4889L395.059 166.25L496.202 206.588L414.955 279.086L466.506 375L357.667 378.312L335.505 484.923L250 417.5L164.495 484.923L142.333 378.312L33.4937 375L85.0447 279.086L3.79807 206.588L104.941 166.25L89.3031 58.4889L192.712 92.6015L250 0Z" fill="#FF003D"/>
<path d="M151.277 211.387H172.441L177.732 184.68H193.773L188.566 211.387H218.045L223.336 184.68H239.377L234.17 211.387H253.066L249.791 228.1H230.895L224.092 262.953H244.164L241.057 279.33H220.9L214.602 312H198.393L204.775 279.33H175.297L168.998 312H152.453L158.92 279.33H138.68L142.123 262.953H162.195L169.082 228.1H147.834L151.277 211.387ZM178.488 262.953H207.967L214.77 228.1H185.291L178.488 262.953ZM309.588 182.328C314.403 182.328 318.938 183.196 323.193 184.932C327.505 186.667 331.284 189.047 334.531 192.07C337.779 195.094 340.326 198.649 342.174 202.736C344.077 206.768 345.029 211.079 345.029 215.67C345.029 221.157 343.742 226.224 341.166 230.871C338.59 235.518 335.147 239.354 330.836 242.377C333.691 244.057 336.295 246.072 338.646 248.424C340.998 250.719 343.014 253.267 344.693 256.066C346.373 258.81 347.661 261.777 348.557 264.969C349.508 268.16 349.984 271.464 349.984 274.879C349.984 280.198 348.893 285.181 346.709 289.828C344.581 294.475 341.67 298.562 337.975 302.09C334.279 305.561 329.968 308.305 325.041 310.32C320.114 312.336 314.851 313.344 309.252 313.344C303.597 313.344 298.278 312.336 293.295 310.32C288.312 308.305 283.973 305.561 280.277 302.09C276.582 298.562 273.643 294.475 271.459 289.828C269.331 285.181 268.268 280.198 268.268 274.879C268.268 271.464 268.715 268.16 269.611 264.969C270.563 261.721 271.879 258.726 273.559 255.982C275.294 253.183 277.338 250.635 279.689 248.34C282.097 245.988 284.757 243.973 287.668 242.293C283.413 239.214 280.025 235.378 277.506 230.787C275.042 226.14 273.811 221.101 273.811 215.67C273.811 211.079 274.734 206.768 276.582 202.736C278.43 198.649 280.949 195.094 284.141 192.07C287.388 189.047 291.195 186.667 295.562 184.932C299.93 183.196 304.605 182.328 309.588 182.328ZM283.637 274.543C283.637 277.846 284.309 280.982 285.652 283.949C286.996 286.861 288.816 289.408 291.111 291.592C293.463 293.775 296.178 295.511 299.258 296.799C302.393 298.087 305.725 298.73 309.252 298.73C312.723 298.73 315.999 298.087 319.078 296.799C322.158 295.511 324.845 293.775 327.141 291.592C329.492 289.408 331.34 286.861 332.684 283.949C334.027 280.982 334.699 277.846 334.699 274.543C334.699 271.296 334.027 268.216 332.684 265.305C331.34 262.393 329.492 259.846 327.141 257.662C324.845 255.479 322.158 253.771 319.078 252.539C315.999 251.251 312.723 250.607 309.252 250.607C305.725 250.607 302.393 251.251 299.258 252.539C296.178 253.771 293.463 255.479 291.111 257.662C288.816 259.846 286.996 262.393 285.652 265.305C284.309 268.216 283.637 271.296 283.637 274.543ZM288.256 216.006C288.256 218.805 288.788 221.437 289.852 223.9C290.915 226.308 292.399 228.436 294.303 230.283C296.206 232.075 298.446 233.503 301.021 234.566C303.653 235.63 306.508 236.162 309.588 236.162C312.443 236.162 315.131 235.63 317.65 234.566C320.17 233.503 322.382 232.075 324.285 230.283C326.245 228.436 327.785 226.308 328.904 223.9C330.024 221.437 330.584 218.805 330.584 216.006C330.584 213.262 330.024 210.687 328.904 208.279C327.785 205.816 326.245 203.688 324.285 201.896C322.382 200.049 320.17 198.593 317.65 197.529C315.131 196.465 312.443 195.934 309.588 195.934C306.508 195.934 303.653 196.465 301.021 197.529C298.446 198.593 296.206 200.049 294.303 201.896C292.399 203.688 290.915 205.816 289.852 208.279C288.788 210.687 288.256 213.262 288.256 216.006Z" fill="white"/>
</svg>
