<svg width="520" height="520" viewBox="0 0 520 520" fill="none" xmlns="http://www.w3.org/2000/svg">
<path d="M270 20L327.288 112.602L430.697 78.4889L415.059 186.25L516.202 226.588L434.955 299.086L486.506 395L377.667 398.312L355.505 504.923L270 437.5L184.495 504.923L162.333 398.312L53.4937 395L105.045 299.086L23.7981 226.588L124.941 186.25L109.303 78.4889L212.712 112.602L270 20Z" fill="#00F1BB" fill-opacity="0.92"/>
<path d="M250 0L307.288 92.6015L410.697 58.4889L395.059 166.25L496.202 206.588L414.955 279.086L466.506 375L357.667 378.312L335.505 484.923L250 417.5L164.495 484.923L142.333 378.312L33.4937 375L85.0447 279.086L3.79807 206.588L104.941 166.25L89.3031 58.4889L192.712 92.6015L250 0Z" fill="#FF003D"/>
<path d="M270 20L327.288 112.602L430.697 78.4889L415.059 186.25L516.202 226.588L434.955 299.086L486.506 395L377.667 398.312L355.505 504.923L270 437.5L184.495 504.923L162.333 398.312L53.4937 395L105.045 299.086L23.7981 226.588L124.941 186.25L109.303 78.4889L212.712 112.602L270 20Z" fill="#00F1BB" fill-opacity="0.92"/>
<path d="M250 0L307.288 92.6015L410.697 58.4889L395.059 166.25L496.202 206.588L414.955 279.086L466.506 375L357.667 378.312L335.505 484.923L250 417.5L164.495 484.923L142.333 378.312L33.4937 375L85.0447 279.086L3.79807 206.588L104.941 166.25L89.3031 58.4889L192.712 92.6015L250 0Z" fill="#FF003D"/>
<path d="M151.277 211.387H172.441L177.732 184.68H193.773L188.566 211.387H218.045L223.336 184.68H239.377L234.17 211.387H253.066L249.791 228.1H230.895L224.092 262.953H244.164L241.057 279.33H220.9L214.602 312H198.393L204.775 279.33H175.297L168.998 312H152.453L158.92 279.33H138.68L142.123 262.953H162.195L169.082 228.1H147.834L151.277 211.387ZM178.488 262.953H207.967L214.77 228.1H185.291L178.488 262.953ZM292.707 312L322.018 263.961C319.218 265.081 316.671 265.837 314.375 266.229C312.079 266.62 309.616 266.816 306.984 266.816C302.057 266.816 296.934 265.865 291.615 263.961C286.352 262.001 281.845 259.286 278.094 255.814C274.398 252.287 271.319 247.976 268.855 242.881C266.448 237.73 265.244 232.523 265.244 227.26C265.244 220.149 266.448 213.822 268.855 208.279C271.263 202.736 274.51 198.061 278.598 194.254C282.685 190.447 287.416 187.563 292.791 185.604C298.222 183.588 303.961 182.58 310.008 182.58C316.055 182.58 321.682 183.588 326.889 185.604C332.152 187.619 336.827 190.531 340.914 194.338C345.001 198.089 348.193 202.596 350.488 207.859C352.84 213.066 354.016 218.861 354.016 225.244C354.016 230.171 353.064 235.042 351.16 239.857C349.312 244.673 346.989 249.712 344.189 254.975L312.275 312H292.707ZM309.588 197.193C305.781 197.193 302.141 197.865 298.67 199.209C295.199 200.553 292.147 202.456 289.516 204.92C286.884 207.383 284.785 210.323 283.217 213.738C281.649 217.154 280.865 220.933 280.865 225.076C280.865 229.667 281.705 233.727 283.385 237.254C285.064 240.725 287.304 243.637 290.104 245.988C292.959 248.34 296.122 250.104 299.594 251.279C303.121 252.455 306.648 253.043 310.176 253.043C315.327 253.043 319.302 252.427 322.102 251.195C324.957 249.908 327.645 248.144 330.164 245.904C332.684 243.609 334.671 240.725 336.127 237.254C337.583 233.727 338.311 229.667 338.311 225.076C338.311 220.709 337.583 216.79 336.127 213.318C334.671 209.847 332.656 206.936 330.08 204.584C327.505 202.176 324.453 200.357 320.926 199.125C317.454 197.837 313.675 197.193 309.588 197.193Z" fill="white"/>
</svg>
