<svg width="841" height="785" viewBox="0 0 841 785" fill="none" xmlns="http://www.w3.org/2000/svg">
<path d="M244.251 262.638L105.47 133.128C58.8371 182.436 25.1479 242.568 9.70764 309.14C31.8824 314.92 54.7636 318.906 78.8438 318.906C141.82 318.906 198.916 297.288 244.251 262.638ZM319.481 263.558L420.5 357.85L698.424 98.4316C624.18 37.3642 527.103 0 420.5 0C408.345 0 396.19 0.754643 382.885 1.70646C390.605 24.7612 394.219 48.7559 394.219 73.5938C394.219 145.946 365.966 212.195 319.481 263.558ZM341.656 73.5938C341.656 51.117 337.348 29.7595 331.252 9.06123C259.856 23.4733 193.988 54.9193 142.625 98.447L281.39 227.972C318.496 185.671 341.656 132.377 341.656 73.5938ZM282.359 298.208C227.333 341.598 156.357 367.969 78.8438 367.969C52.234 367.969 26.5276 364.54 1.82326 358.722C0.808477 369.809 0 381.154 0 392.5C0 492.051 40.0296 582.617 105.47 651.918L383.378 392.5L282.359 298.208ZM521.519 521.442L420.5 427.15L142.576 686.568C215.342 747.59 313.897 785 420.5 785C432.717 785 444.728 784.245 456.686 783.294C450.395 760.162 446.781 736.244 446.781 711.406C446.781 639.039 475.034 572.805 521.519 521.442ZM596.749 522.362L735.514 651.887C782.146 602.579 815.836 542.447 831.276 475.876C809.134 470.08 786.302 466.094 762.156 466.094C699.246 466.094 642.084 487.712 596.749 522.362ZM735.546 133.128L457.622 392.5L558.674 486.823C613.667 443.402 684.627 417.031 762.156 417.031C788.766 417.031 814.472 420.46 839.177 426.278C840.179 415.191 841 403.846 841 392.5C841 292.995 800.921 201.003 735.546 133.128ZM499.344 711.406C499.344 733.883 503.652 755.241 509.748 775.939C581.134 761.527 645.54 730.081 698.316 686.553L559.551 557.028C522.504 599.329 499.344 652.685 499.344 711.406Z" fill="black"/>
</svg>
