<svg width="635" height="847" viewBox="0 0 635 847" fill="none" xmlns="http://www.w3.org/2000/svg">
<path d="M398.017 370.556H582.543C604.554 370.556 624.413 384.286 630.702 404.799C639.804 425.477 634.012 448.803 617.462 463.36L193.797 833.916C175.096 850.128 147.74 851.451 127.748 836.894C107.74 822.336 100.458 795.868 110.206 773.205L237.488 476.429H51.4721C30.9011 476.429 11.1461 462.698 3.38606 442.185C-4.37397 421.507 1.48354 398.182 18.0919 383.624L441.707 13.098C460.408 -3.17674 487.715 -4.41579 507.74 10.1137C527.764 24.6481 535.046 51.0667 525.282 73.7964L398.017 370.556Z" fill="black"/>
</svg>
