<svg width="500" height="500" viewBox="0 0 500 500" fill="none" xmlns="http://www.w3.org/2000/svg">
<path d="M0 0H500V500H0V0Z" fill="#FF003D"/>
<rect x="28" y="26" width="443" height="443" stroke="white" stroke-width="10"/>
<path d="M80.1023 187.059L71.5213 179.14C68.638 182.155 66.5549 185.832 65.6002 189.903C66.9713 190.256 68.3861 190.5 69.875 190.5C73.7689 190.5 77.2992 189.178 80.1023 187.059ZM84.7539 187.116L91 192.881L108.184 177.019C103.594 173.285 97.5914 171 91 171C90.2484 171 89.4969 171.046 88.6742 171.104C89.1516 172.514 89.375 173.981 89.375 175.5C89.375 179.924 87.6281 183.975 84.7539 187.116ZM86.125 175.5C86.125 174.126 85.8586 172.82 85.4817 171.554C81.0672 172.435 76.9945 174.358 73.8187 177.02L82.3987 184.94C84.693 182.353 86.125 179.094 86.125 175.5ZM82.4586 189.234C79.0562 191.887 74.6677 193.5 69.875 193.5C68.2297 193.5 66.6402 193.29 65.1127 192.935C65.05 193.612 65 194.306 65 195C65 201.087 67.4751 206.625 71.5213 210.863L88.7047 195L82.4586 189.234ZM97.2461 202.884L91 197.119L73.8156 212.981C78.3148 216.712 84.4086 219 91 219C91.7554 219 92.498 218.954 93.2374 218.896C92.8484 217.481 92.625 216.019 92.625 214.5C92.625 210.075 94.3719 206.025 97.2461 202.884ZM101.898 202.941L110.478 210.861C113.361 207.846 115.444 204.169 116.399 200.098C115.03 199.744 113.618 199.5 112.125 199.5C108.235 199.5 104.701 200.822 101.898 202.941ZM110.48 179.14L93.2953 195L99.5434 200.767C102.944 198.112 107.331 196.5 112.125 196.5C113.77 196.5 115.36 196.71 116.887 197.065C116.949 196.388 117 195.694 117 195C117 188.916 114.522 183.291 110.48 179.14ZM95.875 214.5C95.875 215.874 96.1414 217.18 96.5183 218.446C100.932 217.565 104.914 215.642 108.178 212.98L99.5977 205.06C97.307 207.647 95.875 210.909 95.875 214.5Z" fill="white" fill-opacity="0.34"/>
<path d="M163.445 316.187H174.778C176.13 316.187 177.35 317.046 177.736 318.33C178.295 319.624 177.939 321.083 176.923 321.994L150.902 345.181C149.754 346.196 148.074 346.279 146.846 345.368C145.617 344.457 145.17 342.8 145.769 341.382L153.586 322.812H142.161C140.898 322.812 139.685 321.953 139.208 320.669C138.731 319.375 139.091 317.916 140.111 317.005L166.128 293.82C167.277 292.801 168.954 292.724 170.184 293.633C171.414 294.542 171.861 296.195 171.261 297.618L163.445 316.187Z" fill="white" fill-opacity="0.34"/>
<path d="M99.0611 420C101.435 420 103.618 418.718 104.811 416.686C106.485 413.825 107.43 410.534 107.43 407C107.43 403.331 106.392 399.916 104.607 396.983L109.074 392.578L110.036 393.53C110.678 394.165 111.718 394.165 112.36 393.53L113.519 392.375C114.16 391.74 114.16 390.711 113.519 390.078L108.115 384.72C107.473 384.085 106.433 384.085 105.791 384.72L104.616 385.875C103.974 386.51 103.974 387.539 104.616 388.172L105.581 389.125L101.538 393.125C100.357 391.969 99.0211 390.966 97.5712 390.128L97.5719 374.478H99.2148C100.113 374.478 100.858 373.741 100.858 372.853L100.858 369.626C100.858 368.725 100.129 368 99.2152 368L76.1221 368.017C75.2236 368.017 74.4802 368.739 74.4802 369.641L74.5716 372.875C74.5716 373.776 75.3033 374.5 76.2145 374.5H77.8574V390.13C71.9666 393.502 68 399.789 68 407C68 410.529 68.95 413.83 70.6184 416.687C71.8126 418.72 73.9945 420 76.3685 420H99.0611ZM80.3218 394.345L82.783 392.937V374.503L92.6435 374.475L92.6453 392.939L95.1065 394.347C97.6441 395.808 99.6259 397.971 100.909 400.5H74.5213C75.8038 397.971 77.7855 395.808 80.3218 394.345Z" fill="white" fill-opacity="0.34"/>
<path d="M169.869 178.903C164.413 176.293 158.016 177.837 154.227 182.234L159.949 187.851C160.596 188.486 160.596 189.509 159.949 190.144C159.625 190.449 159.197 190.612 158.77 190.612C158.343 190.612 157.934 190.449 157.611 190.144L152.488 185.037L139.228 211.725C138.93 212.335 138.918 213.071 139.228 213.719C139.797 214.848 141.195 215.318 142.334 214.773L156.163 208.147L151.081 203.144C150.42 202.522 150.42 201.481 151.081 200.859C151.728 200.224 152.775 200.224 153.41 200.859L159.308 206.646L169.866 201.579C172.351 200.398 174.473 198.405 175.78 195.777C178.905 189.516 176.255 181.97 169.869 178.903ZM179.392 175.369C181.41 171.226 180.375 166.339 176.173 163C170.971 167.24 170.737 173.917 175.357 178.426L176.186 179.238C180.872 183.768 187.694 183.544 192 178.436C188.594 174.404 183.522 173.389 179.392 175.369Z" fill="white" fill-opacity="0.34"/>
<path d="M99.7038 302.347L89.3034 339.095C88.9053 340.49 87.4671 341.294 86.0858 340.9C84.7045 340.498 83.9082 339.046 84.2982 337.652L94.6986 300.904C95.0968 299.511 96.5349 298.703 97.9162 299.102C99.2976 299.5 100.094 300.953 99.7038 302.347ZM108.138 308.959L117.238 318.146C118.254 319.171 118.254 320.828 117.238 321.853L108.138 331.04C107.122 332.066 105.481 332.066 104.465 331.04C103.45 330.015 103.45 328.358 104.465 327.333L111.721 320L104.465 312.666C103.45 311.641 103.45 309.984 104.465 308.959C105.481 307.933 107.122 307.933 108.138 308.959ZM79.5368 312.666L72.2768 320L79.5368 327.333C80.5524 328.358 80.5524 330.015 79.5368 331.04C78.5211 332.066 76.8798 332.066 75.8641 331.04L66.7615 321.853C65.7462 320.828 65.7462 319.171 66.7615 318.146L75.8641 308.959C76.8798 307.933 78.5211 307.933 79.5368 308.959C80.5524 309.984 80.5524 311.641 79.5368 312.666Z" fill="white" fill-opacity="0.34"/>
<path d="M177.429 368H139.571C135.386 368 132 371.322 132 375.429V412.571C132 416.678 135.386 420 139.571 420H177.429C181.614 420 185 416.678 185 412.571V375.429C185 371.322 181.617 368 177.429 368ZM147.143 408.857C145.058 408.857 143.357 407.188 143.357 405.143C143.357 403.098 145.058 401.429 147.143 401.429C149.227 401.429 150.929 403.098 150.929 405.143C150.929 407.188 149.225 408.857 147.143 408.857ZM147.143 397.714C145.061 397.714 143.357 396.043 143.357 394C143.357 391.957 145.058 390.286 147.143 390.286C149.227 390.286 150.929 391.955 150.929 394C150.929 396.045 149.225 397.714 147.143 397.714ZM147.143 386.571C145.061 386.571 143.357 384.9 143.357 382.857C143.357 380.814 145.058 379.143 147.143 379.143C149.227 379.143 150.929 380.812 150.929 382.857C150.929 384.902 149.225 386.571 147.143 386.571ZM169.857 408.857C167.773 408.857 166.071 407.188 166.071 405.143C166.071 403.098 167.773 401.429 169.857 401.429C171.942 401.429 173.643 403.098 173.643 405.143C173.643 407.188 171.939 408.857 169.857 408.857ZM169.857 397.714C167.773 397.714 166.071 396.045 166.071 394C166.071 391.955 167.773 390.286 169.857 390.286C171.942 390.286 173.643 391.955 173.643 394C173.643 396.045 171.939 397.714 169.857 397.714ZM169.857 386.571C167.773 386.571 166.071 384.902 166.071 382.857C166.071 380.812 167.773 379.143 169.857 379.143C171.942 379.143 173.643 380.812 173.643 382.857C173.643 384.902 171.939 386.571 169.857 386.571Z" fill="white" fill-opacity="0.34"/>
<path d="M81.9818 251.766C85.4527 248.672 90.1365 246 95.75 246C101.364 246 106.047 248.672 109.518 251.766C112.971 254.859 115.433 258.478 116.681 261.122C117.106 261.984 117.106 263.016 116.681 263.878C115.433 266.438 112.971 270.141 109.518 273.234C106.047 276.328 101.364 279 95.75 279C90.1365 279 85.4527 276.328 81.9818 273.234C80.5475 271.941 79.2813 270.553 78.2011 269.184L70.2607 274.088C69.1531 274.772 67.7497 274.584 66.8389 273.628C65.9281 272.672 65.7371 271.191 66.3734 270.009L70.4272 262.5L66.3734 254.991C65.7371 253.809 65.9281 252.328 66.8389 251.372C67.7497 250.416 69.1531 250.228 70.2607 250.912L78.2011 255.816C79.2813 254.447 80.5475 253.059 81.9818 251.766ZM102.833 259.5C101.266 259.5 100 260.841 100 262.5C100 264.159 101.266 265.5 102.833 265.5C104.401 265.5 105.667 264.159 105.667 262.5C105.667 260.841 104.401 259.5 102.833 259.5Z" fill="white" fill-opacity="0.34"/>
<path d="M189.605 257.333L184.076 262.623H187.832C183.811 271.079 174.89 276.919 164.458 277C154.1 276.999 145.188 271.081 141.254 262.625H145.01L139.482 257.333C139.164 255.716 139 254.234 139 252.67C139 252.154 139.07 251.637 139.094 251.121H143.507L139.634 247.414C141.008 241.521 144.621 236.334 149.761 232.842C150.02 232.662 150.327 232.572 150.632 232.572C151.149 232.572 151.618 232.819 151.9 233.223C152.193 233.616 152.24 234.133 152.052 234.583C151.442 236.042 151.123 237.614 151.123 239.187C151.123 243.241 153.107 246.97 156.546 249.411C156.926 249.661 157.161 250.083 157.171 250.514C157.194 250.963 157.006 251.39 156.654 251.682C153.579 254.322 152.193 258.33 153.039 262.203C153.954 266.549 157.629 270.031 162.172 270.873L162.407 265L159.859 266.662C159.565 266.841 159.178 266.819 158.92 266.594C158.662 266.358 158.615 265.988 158.791 265.696L160.681 262.664L156.725 261.889C156.384 261.81 156.126 261.518 156.126 261.181C156.126 260.844 156.384 260.552 156.725 260.474L160.681 259.687L158.795 256.659C158.617 256.381 158.664 256.013 158.917 255.77C159.175 255.545 159.563 255.512 159.856 255.703L162.709 257.556L163.788 231.699C163.819 231.311 164.138 231.001 164.458 231C164.855 231.001 165.186 231.311 165.21 231.703L166.289 257.56L169.141 255.707C169.435 255.516 169.822 255.55 170.08 255.774C170.339 256.01 170.386 256.381 170.21 256.661L168.319 259.694L172.275 260.48C172.616 260.558 172.874 260.85 172.874 261.187C172.874 261.524 172.616 261.816 172.275 261.895L168.319 262.67L170.21 265.702C170.386 265.994 170.339 266.365 170.08 266.601C169.822 266.825 169.435 266.848 169.141 266.668L166.594 265.006L166.829 270.879C171.372 270.037 175.046 266.555 175.962 262.209C176.807 258.334 175.422 254.325 172.346 251.688C171.994 251.396 171.806 250.969 171.83 250.52C171.842 250.082 172.076 249.667 172.452 249.408C175.892 246.971 177.875 243.242 177.875 239.184C177.875 237.612 177.558 236.039 176.948 234.579C176.76 234.13 176.807 233.614 177.1 233.22C177.382 232.816 177.852 232.569 178.368 232.569C178.673 232.569 178.976 232.654 179.234 232.834C184.375 236.327 187.994 241.519 189.366 247.416L185.493 251.122H189.906C189.93 251.638 190 252.155 190 252.672C190 254.234 189.924 255.716 189.605 257.333Z" fill="white" fill-opacity="0.34"/>
<path d="M231.102 314.394L222.521 306.31C219.638 309.388 217.555 313.141 216.6 317.297C217.971 317.657 219.386 317.906 220.875 317.906C224.769 317.906 228.299 316.557 231.102 314.394ZM235.754 314.451L242 320.337L259.184 304.144C254.594 300.332 248.591 298 242 298C241.248 298 240.497 298.047 239.674 298.107C240.152 299.546 240.375 301.043 240.375 302.594C240.375 307.11 238.628 311.245 235.754 314.451ZM237.125 302.594C237.125 301.191 236.859 299.858 236.482 298.566C232.067 299.465 227.995 301.428 224.819 304.145L233.399 312.23C235.693 309.59 237.125 306.263 237.125 302.594ZM233.459 316.614C230.056 319.323 225.668 320.969 220.875 320.969C219.23 320.969 217.64 320.755 216.113 320.392C216.05 321.084 216 321.792 216 322.5C216 328.714 218.475 334.367 222.521 338.693L239.705 322.5L233.459 316.614ZM248.246 330.549L242 324.663L224.816 340.856C229.315 344.665 235.409 347 242 347C242.755 347 243.498 346.953 244.237 346.893C243.848 345.45 243.625 343.957 243.625 342.406C243.625 337.889 245.372 333.755 248.246 330.549ZM252.898 330.606L261.478 338.691C264.361 335.613 266.444 331.86 267.399 327.704C266.03 327.343 264.618 327.094 263.125 327.094C259.235 327.094 255.701 328.443 252.898 330.606ZM261.48 306.31L244.295 322.5L250.543 328.388C253.944 325.677 258.331 324.031 263.125 324.031C264.77 324.031 266.36 324.245 267.887 324.608C267.949 323.916 268 323.208 268 322.5C268 316.289 265.522 310.547 261.48 306.31ZM246.875 342.406C246.875 343.809 247.141 345.142 247.518 346.434C251.932 345.535 255.914 343.572 259.178 340.855L250.598 332.77C248.307 335.41 246.875 338.741 246.875 342.406Z" fill="white" fill-opacity="0.34"/>
<path d="M320.286 305.903C314.934 303.293 308.657 304.837 304.94 309.234L310.553 314.851C311.188 315.486 311.188 316.509 310.553 317.144C310.236 317.449 309.815 317.612 309.397 317.612C308.978 317.612 308.577 317.449 308.26 317.144L303.234 312.037L290.224 338.725C289.932 339.335 289.919 340.071 290.224 340.719C290.782 341.848 292.153 342.318 293.271 341.773L306.839 335.147L301.853 330.144C301.205 329.522 301.205 328.481 301.853 327.859C302.487 327.224 303.515 327.224 304.138 327.859L309.925 333.646L320.284 328.579C322.722 327.398 324.804 325.405 326.086 322.777C329.152 316.516 326.552 308.97 320.286 305.903ZM329.63 302.369C331.61 298.226 330.595 293.339 326.471 290C321.368 294.24 321.138 300.917 325.671 305.426L326.484 306.238C331.082 310.768 337.775 310.544 342 305.436C338.659 301.404 333.682 300.389 329.63 302.369Z" fill="white" fill-opacity="0.34"/>
<path d="M232.982 378.591C236.453 375.591 241.137 373 246.75 373C252.364 373 257.047 375.591 260.518 378.591C263.971 381.591 266.433 385.1 267.681 387.664C268.106 388.5 268.106 389.5 267.681 390.336C266.433 392.818 263.971 396.409 260.518 399.409C257.047 402.409 252.364 405 246.75 405C241.137 405 236.453 402.409 232.982 399.409C231.547 398.155 230.281 396.809 229.201 395.482L221.261 400.236C220.153 400.9 218.75 400.718 217.839 399.791C216.928 398.864 216.737 397.427 217.373 396.282L221.427 389L217.373 381.718C216.737 380.573 216.928 379.136 217.839 378.209C218.75 377.282 220.153 377.1 221.261 377.764L229.201 382.518C230.281 381.191 231.547 379.845 232.982 378.591ZM253.833 386.091C252.266 386.091 251 387.391 251 389C251 390.609 252.266 391.909 253.833 391.909C255.401 391.909 256.667 390.609 256.667 389C256.667 387.391 255.401 386.091 253.833 386.091Z" fill="white" fill-opacity="0.34"/>
<path d="M340.605 384.906L335.076 390.311H338.832C334.811 398.951 325.89 404.917 315.458 405C305.1 404.999 296.188 398.952 292.254 390.312H296.01L290.482 384.906C290.164 383.253 290 381.739 290 380.141C290 379.614 290.07 379.086 290.094 378.558H294.507L290.634 374.771C292.008 368.749 295.621 363.45 300.761 359.882C301.02 359.698 301.327 359.606 301.632 359.606C302.149 359.606 302.618 359.858 302.9 360.272C303.193 360.673 303.24 361.201 303.052 361.66C302.442 363.152 302.123 364.758 302.123 366.365C302.123 370.507 304.107 374.317 307.546 376.811C307.926 377.066 308.161 377.498 308.171 377.938C308.194 378.397 308.006 378.833 307.654 379.132C304.579 381.829 303.193 385.925 304.039 389.881C304.954 394.322 308.629 397.879 313.172 398.739L313.407 392.739L310.859 394.437C310.565 394.621 310.178 394.598 309.92 394.368C309.662 394.127 309.615 393.748 309.791 393.45L311.681 390.352L307.725 389.56C307.384 389.48 307.126 389.181 307.126 388.837C307.126 388.493 307.384 388.195 307.725 388.114L311.681 387.311L309.795 384.217C309.617 383.933 309.664 383.556 309.917 383.308C310.175 383.079 310.563 383.044 310.856 383.24L313.709 385.133L314.788 358.714C314.819 358.318 315.138 358.001 315.458 358C315.855 358.001 316.186 358.318 316.21 358.719L317.289 385.138L320.141 383.244C320.435 383.049 320.822 383.083 321.08 383.313C321.339 383.554 321.386 383.932 321.21 384.219L319.319 387.317L323.275 388.121C323.616 388.201 323.874 388.499 323.874 388.844C323.874 389.188 323.616 389.486 323.275 389.566L319.319 390.358L321.21 393.457C321.386 393.755 321.339 394.134 321.08 394.375C320.822 394.604 320.435 394.627 320.141 394.443L317.594 392.745L317.829 398.746C322.372 397.885 326.046 394.328 326.962 389.887C327.807 385.928 326.422 381.832 323.346 379.138C322.994 378.84 322.806 378.404 322.83 377.945C322.842 377.497 323.076 377.073 323.452 376.808C326.892 374.318 328.875 370.508 328.875 366.362C328.875 364.755 328.558 363.149 327.948 361.657C327.76 361.198 327.807 360.67 328.1 360.268C328.382 359.855 328.852 359.603 329.368 359.603C329.673 359.603 329.976 359.69 330.234 359.874C335.375 363.443 338.994 368.748 340.366 374.773L336.493 378.559H340.906C340.93 379.087 341 379.615 341 380.143C341 381.739 340.924 383.253 340.605 384.906Z" fill="white" fill-opacity="0.34"/>
<path d="M317.445 165.75H328.778C330.13 165.75 331.35 166.593 331.736 167.852C332.295 169.121 331.939 170.553 330.923 171.447L304.902 194.197C303.754 195.192 302.074 195.273 300.846 194.38C299.617 193.486 299.17 191.861 299.769 190.469L307.586 172.249H296.161C294.898 172.249 293.685 171.407 293.208 170.147C292.731 168.878 293.091 167.446 294.111 166.552L320.128 143.804C321.277 142.805 322.954 142.729 324.184 143.621C325.414 144.513 325.861 146.135 325.261 147.531L317.445 165.75Z" fill="white" fill-opacity="0.34"/>
<path d="M253.061 269C255.435 269 257.618 267.718 258.811 265.686C260.485 262.825 261.43 259.534 261.43 256C261.43 252.331 260.392 248.916 258.607 245.983L263.074 241.578L264.036 242.53C264.678 243.165 265.718 243.165 266.36 242.53L267.519 241.375C268.16 240.74 268.16 239.711 267.519 239.078L262.115 233.72C261.473 233.085 260.433 233.085 259.791 233.72L258.616 234.875C257.974 235.51 257.974 236.539 258.616 237.172L259.581 238.125L255.538 242.125C254.357 240.969 253.021 239.966 251.571 239.128L251.572 223.478H253.215C254.113 223.478 254.858 222.741 254.858 221.853L254.858 218.626C254.858 217.725 254.129 217 253.215 217L230.122 217.017C229.224 217.017 228.48 217.739 228.48 218.641L228.572 221.875C228.572 222.776 229.303 223.5 230.215 223.5H231.857V239.13C225.967 242.502 222 248.789 222 256C222 259.529 222.95 262.83 224.618 265.687C225.813 267.72 227.995 269 230.369 269H253.061ZM234.322 243.345L236.783 241.937V223.503L246.644 223.475L246.645 241.939L249.107 243.347C251.644 244.808 253.626 246.971 254.909 249.5H228.521C229.804 246.971 231.786 244.808 234.322 243.345Z" fill="white" fill-opacity="0.34"/>
<path d="M253.704 151.347L243.303 188.095C242.905 189.49 241.467 190.294 240.086 189.9C238.704 189.498 237.908 188.046 238.298 186.652L248.699 149.904C249.097 148.511 250.535 147.703 251.916 148.102C253.298 148.5 254.094 149.953 253.704 151.347ZM262.138 157.959L271.238 167.146C272.254 168.171 272.254 169.828 271.238 170.853L262.138 180.04C261.122 181.066 259.481 181.066 258.465 180.04C257.45 179.015 257.45 177.358 258.465 176.333L265.721 169L258.465 161.666C257.45 160.641 257.45 158.984 258.465 157.959C259.481 156.933 261.122 156.933 262.138 157.959ZM233.537 161.666L226.277 169L233.537 176.333C234.552 177.358 234.552 179.015 233.537 180.04C232.521 181.066 230.88 181.066 229.864 180.04L220.762 170.853C219.746 169.828 219.746 168.171 220.762 167.146L229.864 157.959C230.88 156.933 232.521 156.933 233.537 157.959C234.552 158.984 234.552 160.641 233.537 161.666Z" fill="white" fill-opacity="0.34"/>
<path d="M331.571 217H294.429C290.322 217 287 220.322 287 224.429V261.571C287 265.678 290.322 269 294.429 269H331.571C335.678 269 339 265.678 339 261.571V224.429C339 220.322 335.68 217 331.571 217ZM301.857 257.857C299.812 257.857 298.143 256.188 298.143 254.143C298.143 252.098 299.812 250.429 301.857 250.429C303.902 250.429 305.571 252.098 305.571 254.143C305.571 256.188 303.9 257.857 301.857 257.857ZM301.857 246.714C299.814 246.714 298.143 245.043 298.143 243C298.143 240.957 299.812 239.286 301.857 239.286C303.902 239.286 305.571 240.955 305.571 243C305.571 245.045 303.9 246.714 301.857 246.714ZM301.857 235.571C299.814 235.571 298.143 233.9 298.143 231.857C298.143 229.814 299.812 228.143 301.857 228.143C303.902 228.143 305.571 229.812 305.571 231.857C305.571 233.902 303.9 235.571 301.857 235.571ZM324.143 257.857C322.098 257.857 320.429 256.188 320.429 254.143C320.429 252.098 322.098 250.429 324.143 250.429C326.188 250.429 327.857 252.098 327.857 254.143C327.857 256.188 326.186 257.857 324.143 257.857ZM324.143 246.714C322.098 246.714 320.429 245.045 320.429 243C320.429 240.955 322.098 239.286 324.143 239.286C326.188 239.286 327.857 240.955 327.857 243C327.857 245.045 326.186 246.714 324.143 246.714ZM324.143 235.571C322.098 235.571 320.429 233.902 320.429 231.857C320.429 229.812 322.098 228.143 324.143 228.143C326.188 228.143 327.857 229.812 327.857 231.857C327.857 233.902 326.186 235.571 324.143 235.571Z" fill="white" fill-opacity="0.34"/>
<path d="M235.982 100.591C239.453 97.5909 244.137 95 249.75 95C255.364 95 260.047 97.5909 263.518 100.591C266.971 103.591 269.433 107.1 270.681 109.664C271.106 110.5 271.106 111.5 270.681 112.336C269.433 114.818 266.971 118.409 263.518 121.409C260.047 124.409 255.364 127 249.75 127C244.137 127 239.453 124.409 235.982 121.409C234.547 120.155 233.281 118.809 232.201 117.482L224.261 122.236C223.153 122.9 221.75 122.718 220.839 121.791C219.928 120.864 219.737 119.427 220.373 118.282L224.427 111L220.373 103.718C219.737 102.573 219.928 101.136 220.839 100.209C221.75 99.2818 223.153 99.1 224.261 99.7636L232.201 104.518C233.281 103.191 234.547 101.845 235.982 100.591ZM256.833 108.091C255.266 108.091 254 109.391 254 111C254 112.609 255.266 113.909 256.833 113.909C258.401 113.909 259.667 112.609 259.667 111C259.667 109.391 258.401 108.091 256.833 108.091Z" fill="white" fill-opacity="0.34"/>
<path d="M344.597 106.906L338.96 112.311H342.79C338.69 120.951 329.594 126.917 318.957 127C308.396 126.999 299.31 120.952 295.298 112.312H299.128L293.491 106.906C293.168 105.253 293 103.739 293 102.141C293 101.614 293.072 101.086 293.096 100.558H297.596L293.646 96.7713C295.047 90.7494 298.731 85.45 303.972 81.8818C304.236 81.6982 304.549 81.606 304.86 81.606C305.387 81.606 305.866 81.8584 306.153 82.2715C306.452 82.6731 306.5 83.2014 306.308 83.6604C305.686 85.1516 305.361 86.7581 305.361 88.3645C305.361 92.5073 307.384 96.3169 310.89 98.811C311.278 99.0662 311.517 99.4977 311.527 99.9383C311.551 100.397 311.359 100.833 311 101.132C307.864 103.829 306.452 107.925 307.314 111.881C308.248 116.322 311.994 119.879 316.626 120.739L316.866 114.739L314.268 116.437C313.969 116.621 313.574 116.598 313.31 116.368C313.047 116.127 312.999 115.748 313.179 115.45L315.106 112.352L311.072 111.56C310.725 111.48 310.462 111.181 310.462 110.837C310.462 110.493 310.725 110.195 311.072 110.114L315.106 109.311L313.183 106.217C313.001 105.933 313.049 105.556 313.308 105.308C313.571 105.079 313.966 105.044 314.265 105.24L317.174 107.133L318.274 80.7142C318.306 80.3177 318.631 80.0014 318.957 80C319.362 80.0014 319.7 80.3177 319.724 80.7186L320.824 107.138L323.732 105.244C324.032 105.049 324.427 105.083 324.69 105.313C324.953 105.554 325.001 105.932 324.822 106.219L322.894 109.317L326.928 110.121C327.275 110.201 327.538 110.499 327.538 110.844C327.538 111.188 327.275 111.486 326.928 111.566L322.894 112.358L324.822 115.457C325.001 115.755 324.953 116.134 324.69 116.375C324.427 116.604 324.032 116.627 323.732 116.443L321.135 114.745L321.374 120.746C326.006 119.885 329.753 116.328 330.686 111.887C331.548 107.928 330.136 103.832 327 101.138C326.641 100.84 326.45 100.404 326.474 99.9447C326.485 99.4972 326.725 99.0726 327.108 98.8083C330.615 96.3178 332.637 92.5082 332.637 88.3618C332.637 86.7553 332.314 85.1489 331.692 83.6572C331.5 83.1982 331.548 82.6704 331.847 82.2683C332.135 81.8552 332.613 81.6028 333.14 81.6028C333.451 81.6028 333.76 81.6904 334.023 81.874C339.265 85.4431 342.954 90.748 344.354 96.7727L340.405 100.559H344.905C344.929 101.087 345 101.615 345 102.143C345 103.739 344.923 105.253 344.597 106.906Z" fill="white" fill-opacity="0.34"/>
<path d="M98.0611 143C100.435 143 102.618 141.694 103.811 139.622C105.485 136.706 106.43 133.352 106.43 129.75C106.43 126.01 105.392 122.53 103.607 119.54L108.074 115.051L109.036 116.021C109.678 116.668 110.718 116.668 111.36 116.021L112.519 114.844C113.16 114.197 113.16 113.148 112.519 112.502L107.115 107.042C106.473 106.395 105.433 106.395 104.791 107.042L103.616 108.219C102.974 108.866 102.974 109.914 103.616 110.56L104.581 111.531L100.538 115.608C99.357 114.43 98.0211 113.408 96.5712 112.554L96.5719 96.6022H98.2148C99.1133 96.6022 99.8577 95.8517 99.8577 94.946L99.8581 91.6573C99.8581 90.7391 99.129 90 98.2152 90L75.1221 90.0173C74.2236 90.0173 73.4802 90.7533 73.4802 91.6725L73.5716 94.9688C73.5716 95.8875 74.3033 96.625 75.2145 96.625H76.8574V112.556C70.9666 115.993 67 122.4 67 129.75C67 133.347 67.95 136.711 69.6184 139.623C70.8126 141.696 72.9945 143 75.3685 143H98.0611ZM79.3218 116.852L81.783 115.416V96.6281L91.6435 96.5991L91.6453 115.418L94.1065 116.854C96.6441 118.343 98.6259 120.547 99.9094 123.125H73.5213C74.8038 120.547 76.7855 118.343 79.3218 116.852Z" fill="white" fill-opacity="0.34"/>
<path d="M175.571 90H138.429C134.322 90 131 93.3858 131 97.5714V135.429C131 139.614 134.322 143 138.429 143H175.571C179.678 143 183 139.614 183 135.429V97.5714C183 93.3858 179.68 90 175.571 90ZM145.857 131.643C143.812 131.643 142.143 129.942 142.143 127.857C142.143 125.773 143.812 124.071 145.857 124.071C147.902 124.071 149.571 125.773 149.571 127.857C149.571 129.942 147.9 131.643 145.857 131.643ZM145.857 120.286C143.814 120.286 142.143 118.582 142.143 116.5C142.143 114.418 143.812 112.714 145.857 112.714C147.902 112.714 149.571 114.415 149.571 116.5C149.571 118.585 147.9 120.286 145.857 120.286ZM145.857 108.929C143.814 108.929 142.143 107.225 142.143 105.143C142.143 103.061 143.812 101.357 145.857 101.357C147.902 101.357 149.571 103.058 149.571 105.143C149.571 107.227 147.9 108.929 145.857 108.929ZM168.143 131.643C166.098 131.643 164.429 129.942 164.429 127.857C164.429 125.773 166.098 124.071 168.143 124.071C170.188 124.071 171.857 125.773 171.857 127.857C171.857 129.942 170.186 131.643 168.143 131.643ZM168.143 120.286C166.098 120.286 164.429 118.585 164.429 116.5C164.429 114.415 166.098 112.714 168.143 112.714C170.188 112.714 171.857 114.415 171.857 116.5C171.857 118.585 170.186 120.286 168.143 120.286ZM168.143 108.929C166.098 108.929 164.429 107.227 164.429 105.143C164.429 103.058 166.098 101.357 168.143 101.357C170.188 101.357 171.857 103.058 171.857 105.143C171.857 107.227 170.186 108.929 168.143 108.929Z" fill="white" fill-opacity="0.34"/>
<path d="M396.102 187.059L387.521 179.14C384.638 182.155 382.555 185.832 381.6 189.903C382.971 190.256 384.386 190.5 385.875 190.5C389.769 190.5 393.299 189.178 396.102 187.059ZM400.754 187.116L407 192.881L424.184 177.019C419.594 173.285 413.591 171 407 171C406.248 171 405.497 171.046 404.674 171.104C405.152 172.514 405.375 173.981 405.375 175.5C405.375 179.924 403.628 183.975 400.754 187.116ZM402.125 175.5C402.125 174.126 401.859 172.82 401.482 171.554C397.067 172.435 392.995 174.358 389.819 177.02L398.399 184.94C400.693 182.353 402.125 179.094 402.125 175.5ZM398.459 189.234C395.056 191.887 390.668 193.5 385.875 193.5C384.23 193.5 382.64 193.29 381.113 192.935C381.05 193.612 381 194.306 381 195C381 201.087 383.475 206.625 387.521 210.863L404.705 195L398.459 189.234ZM413.246 202.884L407 197.119L389.816 212.981C394.315 216.712 400.409 219 407 219C407.755 219 408.498 218.954 409.237 218.896C408.848 217.481 408.625 216.019 408.625 214.5C408.625 210.075 410.372 206.025 413.246 202.884ZM417.898 202.941L426.478 210.861C429.361 207.846 431.444 204.169 432.399 200.098C431.03 199.744 429.618 199.5 428.125 199.5C424.235 199.5 420.701 200.822 417.898 202.941ZM426.48 179.14L409.295 195L415.543 200.767C418.944 198.112 423.331 196.5 428.125 196.5C429.77 196.5 431.36 196.71 432.887 197.065C432.949 196.388 433 195.694 433 195C433 188.916 430.522 183.291 426.48 179.14ZM411.875 214.5C411.875 215.874 412.141 217.18 412.518 218.446C416.932 217.565 420.914 215.642 424.178 212.98L415.598 205.06C413.307 207.647 411.875 210.909 411.875 214.5Z" fill="white" fill-opacity="0.34"/>
<path d="M415.061 420C417.435 420 419.618 418.718 420.811 416.686C422.485 413.825 423.43 410.534 423.43 407C423.43 403.331 422.392 399.916 420.607 396.983L425.074 392.578L426.036 393.53C426.678 394.165 427.718 394.165 428.36 393.53L429.519 392.375C430.16 391.74 430.16 390.711 429.519 390.078L424.115 384.72C423.473 384.085 422.433 384.085 421.791 384.72L420.616 385.875C419.974 386.51 419.974 387.539 420.616 388.172L421.581 389.125L417.538 393.125C416.357 391.969 415.021 390.966 413.571 390.128L413.572 374.478H415.215C416.113 374.478 416.858 373.741 416.858 372.853L416.858 369.626C416.858 368.725 416.129 368 415.215 368L392.122 368.017C391.224 368.017 390.48 368.739 390.48 369.641L390.572 372.875C390.572 373.776 391.303 374.5 392.215 374.5H393.857V390.13C387.967 393.502 384 399.789 384 407C384 410.529 384.95 413.83 386.618 416.687C387.813 418.72 389.995 420 392.369 420H415.061ZM396.322 394.345L398.783 392.937V374.503L408.644 374.475L408.645 392.939L411.107 394.347C413.644 395.808 415.626 397.971 416.909 400.5H390.521C391.804 397.971 393.786 395.808 396.322 394.345Z" fill="white" fill-opacity="0.34"/>
<path d="M415.704 302.347L405.303 339.095C404.905 340.49 403.467 341.294 402.086 340.9C400.704 340.498 399.908 339.046 400.298 337.652L410.699 300.904C411.097 299.511 412.535 298.703 413.916 299.102C415.298 299.5 416.094 300.953 415.704 302.347ZM424.138 308.959L433.238 318.146C434.254 319.171 434.254 320.828 433.238 321.853L424.138 331.04C423.122 332.066 421.481 332.066 420.465 331.04C419.45 330.015 419.45 328.358 420.465 327.333L427.721 320L420.465 312.666C419.45 311.641 419.45 309.984 420.465 308.959C421.481 307.933 423.122 307.933 424.138 308.959ZM395.537 312.666L388.277 320L395.537 327.333C396.552 328.358 396.552 330.015 395.537 331.04C394.521 332.066 392.88 332.066 391.864 331.04L382.762 321.853C381.746 320.828 381.746 319.171 382.762 318.146L391.864 308.959C392.88 307.933 394.521 307.933 395.537 308.959C396.552 309.984 396.552 311.641 395.537 312.666Z" fill="white" fill-opacity="0.34"/>
<path d="M397.982 251.766C401.453 248.672 406.137 246 411.75 246C417.364 246 422.047 248.672 425.518 251.766C428.971 254.859 431.433 258.478 432.681 261.122C433.106 261.984 433.106 263.016 432.681 263.878C431.433 266.438 428.971 270.141 425.518 273.234C422.047 276.328 417.364 279 411.75 279C406.137 279 401.453 276.328 397.982 273.234C396.547 271.941 395.281 270.553 394.201 269.184L386.261 274.088C385.153 274.772 383.75 274.584 382.839 273.628C381.928 272.672 381.737 271.191 382.373 270.009L386.427 262.5L382.373 254.991C381.737 253.809 381.928 252.328 382.839 251.372C383.75 250.416 385.153 250.228 386.261 250.912L394.201 255.816C395.281 254.447 396.547 253.059 397.982 251.766ZM418.833 259.5C417.266 259.5 416 260.841 416 262.5C416 264.159 417.266 265.5 418.833 265.5C420.401 265.5 421.667 264.159 421.667 262.5C421.667 260.841 420.401 259.5 418.833 259.5Z" fill="white" fill-opacity="0.34"/>
<path d="M414.061 143C416.435 143 418.618 141.694 419.811 139.622C421.485 136.706 422.43 133.352 422.43 129.75C422.43 126.01 421.392 122.53 419.607 119.54L424.074 115.051L425.036 116.021C425.678 116.668 426.718 116.668 427.36 116.021L428.519 114.844C429.16 114.197 429.16 113.148 428.519 112.502L423.115 107.042C422.473 106.395 421.433 106.395 420.791 107.042L419.616 108.219C418.974 108.866 418.974 109.914 419.616 110.56L420.581 111.531L416.538 115.608C415.357 114.43 414.021 113.408 412.571 112.554L412.572 96.6022H414.215C415.113 96.6022 415.858 95.8517 415.858 94.946L415.858 91.6573C415.858 90.7391 415.129 90 414.215 90L391.122 90.0173C390.224 90.0173 389.48 90.7533 389.48 91.6725L389.572 94.9688C389.572 95.8875 390.303 96.625 391.215 96.625H392.857V112.556C386.967 115.993 383 122.4 383 129.75C383 133.347 383.95 136.711 385.618 139.623C386.813 141.696 388.995 143 391.369 143H414.061ZM395.322 116.852L397.783 115.416V96.6281L407.644 96.5991L407.645 115.418L410.107 116.854C412.644 118.343 414.626 120.547 415.909 123.125H389.521C390.804 120.547 392.786 118.343 395.322 116.852Z" fill="white" fill-opacity="0.34"/>
</svg>
