<svg width="850" height="841" viewBox="0 0 850 841" fill="none" xmlns="http://www.w3.org/2000/svg">
<path d="M495.061 257.205C407.571 214.994 304.974 239.959 244.213 311.076L335.969 401.919C346.345 412.184 346.345 428.74 335.969 439.005C330.778 443.933 323.907 446.569 317.06 446.569C310.214 446.569 303.666 443.933 298.483 439.005L216.323 356.407L3.65792 788.038C-1.115 797.893 -1.32251 809.8 3.65792 820.279C12.7887 838.543 35.2007 846.147 53.4623 837.328L275.258 730.159L193.745 649.253C183.158 639.193 183.158 622.35 193.745 612.298C204.12 602.033 220.921 602.033 231.098 612.298L325.693 705.884L495.028 623.943C534.871 604.841 568.904 572.601 589.872 530.111C639.992 428.839 597.492 306.806 495.061 257.205ZM647.794 200.048C680.167 133.037 663.566 54.0031 596.164 0C512.742 68.5715 508.99 176.561 583.09 249.485L596.371 262.625C671.534 335.877 780.938 332.264 850 249.649C795.381 184.445 714.034 168.021 647.794 200.048Z" fill="black"/>
</svg>
