<svg width="845" height="676" viewBox="0 0 845 676" fill="none" xmlns="http://www.w3.org/2000/svg">
<path d="M547.687 53.8631L378.68 645.346C372.211 667.79 348.84 680.728 326.394 674.391C303.948 667.922 291.008 644.554 297.346 622.109L466.353 30.6532C472.822 8.21694 496.193 -4.77426 518.639 1.63685C541.085 8.04663 554.025 31.4321 547.687 53.8631ZM684.741 160.288L832.622 308.155C849.126 324.658 849.126 351.327 832.622 367.83L684.741 515.698C668.236 532.201 641.565 532.201 625.06 515.698C608.556 499.195 608.556 472.526 625.06 456.023L742.969 337.993L625.06 219.963C608.556 203.46 608.556 176.791 625.06 160.288C641.565 143.785 668.236 143.785 684.741 160.288ZM219.973 219.963L101.998 337.993L219.973 456.023C236.477 472.526 236.477 499.195 219.973 515.698C203.468 532.201 176.797 532.201 160.292 515.698L12.3745 367.83C-4.12482 351.327 -4.12482 324.658 12.3745 308.155L160.292 160.288C176.797 143.785 203.468 143.785 219.973 160.288C236.477 176.791 236.477 203.46 219.973 219.963Z" fill="black"/>
</svg>
