<svg width="842" height="842" viewBox="0 0 842 842" fill="none" xmlns="http://www.w3.org/2000/svg">
<path d="M721.714 0H120.286C53.7903 0 0 53.7903 0 120.286V721.714C0 788.21 53.7903 842 120.286 842H721.714C788.21 842 842 788.21 842 721.714V120.286C842 53.7903 788.247 0 721.714 0ZM240.571 661.571C207.455 661.571 180.429 634.545 180.429 601.429C180.429 568.312 207.455 541.286 240.571 541.286C273.688 541.286 300.714 568.312 300.714 601.429C300.714 634.545 273.65 661.571 240.571 661.571ZM240.571 481.143C207.493 481.143 180.429 454.079 180.429 421C180.429 387.921 207.455 360.857 240.571 360.857C273.688 360.857 300.714 387.884 300.714 421C300.714 454.116 273.65 481.143 240.571 481.143ZM240.571 300.714C207.493 300.714 180.429 273.65 180.429 240.571C180.429 207.493 207.455 180.429 240.571 180.429C273.688 180.429 300.714 207.455 300.714 240.571C300.714 273.688 273.65 300.714 240.571 300.714ZM601.429 661.571C568.312 661.571 541.286 634.545 541.286 601.429C541.286 568.312 568.312 541.286 601.429 541.286C634.545 541.286 661.571 568.312 661.571 601.429C661.571 634.545 634.507 661.571 601.429 661.571ZM601.429 481.143C568.312 481.143 541.286 454.116 541.286 421C541.286 387.884 568.312 360.857 601.429 360.857C634.545 360.857 661.571 387.884 661.571 421C661.571 454.116 634.507 481.143 601.429 481.143ZM601.429 300.714C568.312 300.714 541.286 273.688 541.286 240.571C541.286 207.455 568.312 180.429 601.429 180.429C634.545 180.429 661.571 207.455 661.571 240.571C661.571 273.688 634.507 300.714 601.429 300.714Z" fill="black"/>
</svg>
