<svg width="830" height="528" viewBox="0 0 830 528" fill="none" xmlns="http://www.w3.org/2000/svg">
<path d="M260.096 92.25C316.582 42.75 392.81 0 484.167 0C575.525 0 651.752 42.75 708.238 92.25C764.436 141.75 804.495 199.65 824.813 241.95C831.729 255.75 831.729 272.25 824.813 286.05C804.495 327 764.436 386.25 708.238 435.75C651.752 485.25 575.525 528 484.167 528C392.81 528 316.582 485.25 260.096 435.75C236.753 415.05 216.147 392.85 198.567 370.95L69.3409 449.4C51.3144 460.35 28.475 457.35 13.6532 442.05C-1.17046 426.75 -4.2782 403.05 6.07661 384.15L72.05 264L6.07661 143.85C-4.2782 124.95 -1.17046 101.25 13.6532 85.95C28.475 70.65 51.3144 67.65 69.3409 78.6L198.567 157.05C216.147 135.15 236.753 112.95 260.096 92.25ZM599.445 216C573.94 216 553.334 237.45 553.334 264C553.334 290.55 573.94 312 599.445 312C624.95 312 645.556 290.55 645.556 264C645.556 237.45 624.95 216 599.445 216Z" fill="black"/>
</svg>
