<svg width="834" height="752" viewBox="0 0 834 752" fill="none" xmlns="http://www.w3.org/2000/svg">
<path d="M827.544 430.491L737.126 516.971H798.551C732.796 655.209 586.912 750.678 416.306 752C246.927 751.989 101.197 655.239 36.8548 517H98.2794L7.87771 430.491C2.68733 404.053 0 379.819 0 354.262C0 345.817 1.15171 337.372 1.53562 328.927H73.7096L10.3654 268.341C32.8315 171.991 91.922 87.1997 175.982 30.1094C180.205 27.1719 185.228 25.6958 190.22 25.6958C198.666 25.6958 206.344 29.7348 210.951 36.3442C215.749 42.77 216.517 51.2227 213.446 58.5664C203.469 82.4263 198.248 108.129 198.248 133.833C198.248 200.117 230.696 261.07 286.93 300.976C293.149 305.059 296.988 311.962 297.142 319.012C297.526 326.356 294.453 333.336 288.694 338.106C238.403 381.258 215.753 446.794 229.573 510.097C244.547 581.155 304.634 638.069 378.927 651.831L382.766 555.819L341.105 582.991C336.306 585.928 329.97 585.561 325.749 581.889C321.526 578.034 320.758 571.975 323.637 567.202L354.549 517.632L289.854 504.961C284.287 503.676 280.064 498.902 280.064 493.394C280.064 487.886 284.287 483.113 289.854 481.828L354.549 468.976L323.708 419.475C320.79 414.922 321.558 408.9 325.704 404.934C329.927 401.263 336.263 400.712 341.06 403.833L387.712 434.133L405.357 11.4269C405.863 5.08334 411.084 0.0229125 416.306 0C422.812 0.0229125 428.22 5.08334 428.604 11.4974L446.248 434.204L492.901 403.903C497.699 400.782 504.035 401.333 508.257 405.005C512.48 408.86 513.247 414.919 510.368 419.509L479.456 469.079L544.152 481.931C549.718 483.216 553.941 487.989 553.941 493.497C553.941 499.005 549.718 503.778 544.152 505.063L479.456 517.734L510.368 567.305C513.247 572.078 512.48 578.137 508.257 581.992C504.034 585.664 497.698 586.031 492.901 583.094L451.239 555.922L455.078 651.934C529.371 638.165 589.46 581.243 604.432 510.2C618.254 446.852 595.603 381.317 545.311 338.209C539.553 333.436 536.48 326.456 536.864 319.115C537.056 311.955 540.896 305.162 547.039 300.932C603.288 261.085 635.72 200.132 635.72 133.788C635.72 108.085 630.538 82.3822 620.556 58.515C617.485 51.1713 618.253 42.7259 623.052 36.2928C627.659 29.6834 635.338 25.6444 643.782 25.6444C648.773 25.6444 653.724 27.0464 657.947 29.9845C742.022 87.0895 801.189 171.969 823.64 268.363L760.296 328.949H832.47C832.854 337.394 834 345.839 834 354.285C833.993 379.819 832.765 404.053 827.544 430.491Z" fill="black"/>
</svg>
