<svg width="737" height="842" viewBox="0 0 737 842" fill="none" xmlns="http://www.w3.org/2000/svg">
<path d="M497.653 842C535.689 842 570.665 821.246 589.781 788.339C616.597 742.012 631.732 688.73 631.732 631.5C631.732 572.083 615.1 516.794 586.507 469.3L658.071 397.977L673.495 413.394C683.777 423.672 700.443 423.672 710.725 413.394L729.288 394.688C739.571 384.409 739.571 367.75 729.288 357.488L642.705 270.739C632.423 260.461 615.758 260.461 605.476 270.739L586.655 289.438C576.373 299.716 576.373 316.375 586.655 326.637L602.12 342.062L537.334 406.824C518.415 388.109 497.012 371.878 473.782 358.31L473.794 104.888H500.116C514.511 104.888 526.438 92.9653 526.438 78.5757L526.443 26.3289C526.443 11.742 514.763 0 500.121 0L130.13 0.274143C115.735 0.274143 103.824 11.9668 103.824 26.5702L105.289 78.9375C105.289 93.5327 117.012 105.25 131.611 105.25H157.933V358.343C63.5516 412.942 0 514.738 0 631.5C0 688.647 15.2208 742.095 41.9509 788.355C61.0839 821.279 96.043 842 134.079 842H497.653ZM197.416 426.591L236.85 403.782V105.299L394.832 104.839L394.86 403.815L434.294 426.624C474.951 450.273 506.702 485.301 527.266 526.25H104.483C125.03 485.301 156.781 450.273 197.416 426.591Z" fill="black"/>
</svg>
